<mxfile host="app.diagrams.net" modified="2020-12-20T06:14:10.484Z" agent="5.0 (Macintosh; Intel Mac OS X 11_0_0) AppleWebKit/537.36 (KHTML, like Gecko) Chrome/87.0.4280.88 Safari/537.36" etag="SPmogrtG6OguisLE6nQA" version="14.0.4" type="github">
  <diagram id="kplZ0NCWsr6GW4oKKgh9" name="第 1 页">
    <mxGraphModel dx="1134" dy="588" grid="0" gridSize="10" guides="1" tooltips="1" connect="1" arrows="1" fold="1" page="1" pageScale="1" pageWidth="827" pageHeight="1169" math="0" shadow="0">
      <root>
        <mxCell id="0" />
        <mxCell id="1" parent="0" />
        <mxCell id="CFtpUM7p2ZvUpT1zvE-L-4" style="edgeStyle=orthogonalEdgeStyle;rounded=0;orthogonalLoop=1;jettySize=auto;html=1;exitX=0.5;exitY=1;exitDx=0;exitDy=0;" edge="1" parent="1" source="CFtpUM7p2ZvUpT1zvE-L-1" target="CFtpUM7p2ZvUpT1zvE-L-2">
          <mxGeometry relative="1" as="geometry" />
        </mxCell>
        <mxCell id="CFtpUM7p2ZvUpT1zvE-L-1" value="Req" style="rounded=1;whiteSpace=wrap;html=1;" vertex="1" parent="1">
          <mxGeometry x="62" y="77" width="120" height="60" as="geometry" />
        </mxCell>
        <mxCell id="CFtpUM7p2ZvUpT1zvE-L-5" style="edgeStyle=orthogonalEdgeStyle;rounded=0;orthogonalLoop=1;jettySize=auto;html=1;exitX=0.5;exitY=1;exitDx=0;exitDy=0;" edge="1" parent="1" source="CFtpUM7p2ZvUpT1zvE-L-2" target="CFtpUM7p2ZvUpT1zvE-L-3">
          <mxGeometry relative="1" as="geometry" />
        </mxCell>
        <mxCell id="CFtpUM7p2ZvUpT1zvE-L-2" value="DTO" style="rounded=1;whiteSpace=wrap;html=1;" vertex="1" parent="1">
          <mxGeometry x="62" y="175" width="120" height="60" as="geometry" />
        </mxCell>
        <mxCell id="CFtpUM7p2ZvUpT1zvE-L-3" value="PO" style="rounded=1;whiteSpace=wrap;html=1;" vertex="1" parent="1">
          <mxGeometry x="62" y="280" width="120" height="60" as="geometry" />
        </mxCell>
        <mxCell id="CFtpUM7p2ZvUpT1zvE-L-6" style="edgeStyle=orthogonalEdgeStyle;rounded=0;orthogonalLoop=1;jettySize=auto;html=1;exitX=0.5;exitY=1;exitDx=0;exitDy=0;" edge="1" parent="1" source="CFtpUM7p2ZvUpT1zvE-L-7" target="CFtpUM7p2ZvUpT1zvE-L-9">
          <mxGeometry relative="1" as="geometry" />
        </mxCell>
        <mxCell id="CFtpUM7p2ZvUpT1zvE-L-7" value="Req" style="rounded=1;whiteSpace=wrap;html=1;" vertex="1" parent="1">
          <mxGeometry x="248" y="73.5" width="120" height="60" as="geometry" />
        </mxCell>
        <mxCell id="CFtpUM7p2ZvUpT1zvE-L-8" style="edgeStyle=orthogonalEdgeStyle;rounded=0;orthogonalLoop=1;jettySize=auto;html=1;exitX=0.5;exitY=1;exitDx=0;exitDy=0;" edge="1" parent="1" source="CFtpUM7p2ZvUpT1zvE-L-9" target="CFtpUM7p2ZvUpT1zvE-L-10">
          <mxGeometry relative="1" as="geometry" />
        </mxCell>
        <mxCell id="CFtpUM7p2ZvUpT1zvE-L-9" value="DTO" style="rounded=1;whiteSpace=wrap;html=1;" vertex="1" parent="1">
          <mxGeometry x="248" y="171.5" width="120" height="60" as="geometry" />
        </mxCell>
        <mxCell id="CFtpUM7p2ZvUpT1zvE-L-12" style="edgeStyle=orthogonalEdgeStyle;rounded=0;orthogonalLoop=1;jettySize=auto;html=1;exitX=0.5;exitY=1;exitDx=0;exitDy=0;" edge="1" parent="1" source="CFtpUM7p2ZvUpT1zvE-L-10" target="CFtpUM7p2ZvUpT1zvE-L-11">
          <mxGeometry relative="1" as="geometry" />
        </mxCell>
        <mxCell id="CFtpUM7p2ZvUpT1zvE-L-10" value="PO" style="rounded=1;whiteSpace=wrap;html=1;" vertex="1" parent="1">
          <mxGeometry x="248" y="276.5" width="120" height="60" as="geometry" />
        </mxCell>
        <mxCell id="CFtpUM7p2ZvUpT1zvE-L-11" value="VO" style="rounded=1;whiteSpace=wrap;html=1;" vertex="1" parent="1">
          <mxGeometry x="248" y="387" width="120" height="60" as="geometry" />
        </mxCell>
      </root>
    </mxGraphModel>
  </diagram>
</mxfile>
